<mxfile host="Electron" modified="2023-12-29T08:29:08.673Z" agent="Mozilla/5.0 (Windows NT 10.0; Win64; x64) AppleWebKit/537.36 (KHTML, like Gecko) draw.io/22.1.15 Chrome/120.0.6099.109 Electron/28.1.0 Safari/537.36" etag="v9vDimAYg067zo-bH8U6" version="22.1.15" type="device">
  <diagram name="Page-1" id="LtMPOSMvzV6gFBnCF_me">
    <mxGraphModel dx="484" dy="663" grid="1" gridSize="10" guides="1" tooltips="1" connect="1" arrows="1" fold="1" page="0" pageScale="1" pageWidth="850" pageHeight="1100" math="0" shadow="0">
      <root>
        <mxCell id="0" />
        <mxCell id="1" parent="0" />
        <mxCell id="8Ifmvfzh9Me1tGv9ybPd-8" value="" style="edgeStyle=orthogonalEdgeStyle;rounded=0;orthogonalLoop=1;jettySize=auto;html=1;" parent="1" source="8Ifmvfzh9Me1tGv9ybPd-6" target="8Ifmvfzh9Me1tGv9ybPd-7" edge="1">
          <mxGeometry relative="1" as="geometry" />
        </mxCell>
        <mxCell id="8Ifmvfzh9Me1tGv9ybPd-6" value="操作" style="rounded=0;whiteSpace=wrap;html=1;fillColor=#b1ddf0;strokeColor=#10739e;" parent="1" vertex="1">
          <mxGeometry x="170" y="200" width="60" height="20" as="geometry" />
        </mxCell>
        <mxCell id="8Ifmvfzh9Me1tGv9ybPd-10" value="" style="edgeStyle=orthogonalEdgeStyle;rounded=0;orthogonalLoop=1;jettySize=auto;html=1;" parent="1" source="8Ifmvfzh9Me1tGv9ybPd-7" target="8Ifmvfzh9Me1tGv9ybPd-9" edge="1">
          <mxGeometry relative="1" as="geometry" />
        </mxCell>
        <mxCell id="8Ifmvfzh9Me1tGv9ybPd-7" value="操作" style="rounded=0;whiteSpace=wrap;html=1;fillColor=#b1ddf0;strokeColor=#10739e;" parent="1" vertex="1">
          <mxGeometry x="170" y="240" width="60" height="20" as="geometry" />
        </mxCell>
        <mxCell id="8Ifmvfzh9Me1tGv9ybPd-9" value="操作" style="rounded=0;whiteSpace=wrap;html=1;fillColor=#b1ddf0;strokeColor=#10739e;" parent="1" vertex="1">
          <mxGeometry x="170" y="280" width="60" height="20" as="geometry" />
        </mxCell>
        <mxCell id="8Ifmvfzh9Me1tGv9ybPd-14" value="" style="endArrow=classic;html=1;rounded=0;entryX=0.5;entryY=0;entryDx=0;entryDy=0;" parent="1" target="8Ifmvfzh9Me1tGv9ybPd-6" edge="1">
          <mxGeometry width="50" height="50" relative="1" as="geometry">
            <mxPoint x="200" y="170" as="sourcePoint" />
            <mxPoint x="460" y="310" as="targetPoint" />
          </mxGeometry>
        </mxCell>
        <mxCell id="8Ifmvfzh9Me1tGv9ybPd-15" value="" style="endArrow=classic;html=1;rounded=0;exitX=0.5;exitY=1;exitDx=0;exitDy=0;" parent="1" source="8Ifmvfzh9Me1tGv9ybPd-9" edge="1">
          <mxGeometry width="50" height="50" relative="1" as="geometry">
            <mxPoint x="199.5" y="350" as="sourcePoint" />
            <mxPoint x="200" y="330" as="targetPoint" />
          </mxGeometry>
        </mxCell>
        <mxCell id="8Ifmvfzh9Me1tGv9ybPd-16" value="顺序结构" style="text;html=1;strokeColor=none;fillColor=#80cbf2;align=center;verticalAlign=middle;whiteSpace=wrap;rounded=0;gradientColor=none;" parent="1" vertex="1">
          <mxGeometry x="170" y="130" width="60" height="30" as="geometry" />
        </mxCell>
        <mxCell id="8Ifmvfzh9Me1tGv9ybPd-23" style="edgeStyle=orthogonalEdgeStyle;rounded=0;orthogonalLoop=1;jettySize=auto;html=1;exitX=0;exitY=0.5;exitDx=0;exitDy=0;" parent="1" source="8Ifmvfzh9Me1tGv9ybPd-17" target="8Ifmvfzh9Me1tGv9ybPd-19" edge="1">
          <mxGeometry relative="1" as="geometry">
            <Array as="points">
              <mxPoint x="280" y="215" />
            </Array>
          </mxGeometry>
        </mxCell>
        <mxCell id="8Ifmvfzh9Me1tGv9ybPd-46" value="满足" style="edgeLabel;html=1;align=center;verticalAlign=middle;resizable=0;points=[];" parent="8Ifmvfzh9Me1tGv9ybPd-23" vertex="1" connectable="0">
          <mxGeometry x="0.1844" y="-3" relative="1" as="geometry">
            <mxPoint x="3" y="2" as="offset" />
          </mxGeometry>
        </mxCell>
        <mxCell id="8Ifmvfzh9Me1tGv9ybPd-24" style="edgeStyle=orthogonalEdgeStyle;rounded=0;orthogonalLoop=1;jettySize=auto;html=1;exitX=1;exitY=0.5;exitDx=0;exitDy=0;" parent="1" source="8Ifmvfzh9Me1tGv9ybPd-17" target="8Ifmvfzh9Me1tGv9ybPd-21" edge="1">
          <mxGeometry relative="1" as="geometry">
            <Array as="points">
              <mxPoint x="360" y="215" />
            </Array>
          </mxGeometry>
        </mxCell>
        <mxCell id="8Ifmvfzh9Me1tGv9ybPd-47" value="不满足" style="edgeLabel;html=1;align=center;verticalAlign=middle;resizable=0;points=[];" parent="8Ifmvfzh9Me1tGv9ybPd-24" vertex="1" connectable="0">
          <mxGeometry x="0.1481" relative="1" as="geometry">
            <mxPoint y="4" as="offset" />
          </mxGeometry>
        </mxCell>
        <mxCell id="8Ifmvfzh9Me1tGv9ybPd-17" value="条件" style="rhombus;whiteSpace=wrap;html=1;fillColor=#fad7ac;strokeColor=#b46504;" parent="1" vertex="1">
          <mxGeometry x="290" y="200" width="60" height="30" as="geometry" />
        </mxCell>
        <mxCell id="8Ifmvfzh9Me1tGv9ybPd-18" value="" style="endArrow=classic;html=1;rounded=0;entryX=0.5;entryY=0;entryDx=0;entryDy=0;" parent="1" edge="1">
          <mxGeometry width="50" height="50" relative="1" as="geometry">
            <mxPoint x="320" y="170" as="sourcePoint" />
            <mxPoint x="320" y="200" as="targetPoint" />
          </mxGeometry>
        </mxCell>
        <mxCell id="8Ifmvfzh9Me1tGv9ybPd-50" value="" style="edgeStyle=orthogonalEdgeStyle;rounded=0;orthogonalLoop=1;jettySize=auto;html=1;" parent="1" source="8Ifmvfzh9Me1tGv9ybPd-19" edge="1">
          <mxGeometry relative="1" as="geometry">
            <mxPoint x="320" y="330" as="targetPoint" />
            <Array as="points">
              <mxPoint x="280" y="300" />
              <mxPoint x="320" y="300" />
            </Array>
          </mxGeometry>
        </mxCell>
        <mxCell id="8Ifmvfzh9Me1tGv9ybPd-19" value="操作" style="rounded=0;whiteSpace=wrap;html=1;fillColor=#fad7ac;strokeColor=#b46504;" parent="1" vertex="1">
          <mxGeometry x="250" y="260" width="60" height="20" as="geometry" />
        </mxCell>
        <mxCell id="8Ifmvfzh9Me1tGv9ybPd-21" value="操作" style="rounded=0;whiteSpace=wrap;html=1;fillColor=#fad7ac;strokeColor=#b46504;" parent="1" vertex="1">
          <mxGeometry x="330" y="260" width="60" height="20" as="geometry" />
        </mxCell>
        <mxCell id="8Ifmvfzh9Me1tGv9ybPd-34" value="选择结构" style="text;html=1;strokeColor=none;fillColor=#ffc37b;align=center;verticalAlign=middle;whiteSpace=wrap;rounded=0;gradientColor=none;" parent="1" vertex="1">
          <mxGeometry x="290" y="130" width="60" height="30" as="geometry" />
        </mxCell>
        <mxCell id="8Ifmvfzh9Me1tGv9ybPd-35" value="循环结构" style="text;html=1;strokeColor=none;fillColor=#ffb5a8;align=center;verticalAlign=middle;whiteSpace=wrap;rounded=0;gradientColor=none;" parent="1" vertex="1">
          <mxGeometry x="420" y="130" width="60" height="30" as="geometry" />
        </mxCell>
        <mxCell id="8Ifmvfzh9Me1tGv9ybPd-40" style="edgeStyle=orthogonalEdgeStyle;rounded=0;orthogonalLoop=1;jettySize=auto;html=1;entryX=0.5;entryY=0;entryDx=0;entryDy=0;" parent="1" source="8Ifmvfzh9Me1tGv9ybPd-36" target="8Ifmvfzh9Me1tGv9ybPd-38" edge="1">
          <mxGeometry relative="1" as="geometry" />
        </mxCell>
        <mxCell id="8Ifmvfzh9Me1tGv9ybPd-44" value="满足" style="edgeLabel;html=1;align=center;verticalAlign=middle;resizable=0;points=[];" parent="8Ifmvfzh9Me1tGv9ybPd-40" vertex="1" connectable="0">
          <mxGeometry x="0.619" y="-2" relative="1" as="geometry">
            <mxPoint x="2" y="-10" as="offset" />
          </mxGeometry>
        </mxCell>
        <mxCell id="8Ifmvfzh9Me1tGv9ybPd-43" style="edgeStyle=orthogonalEdgeStyle;rounded=0;orthogonalLoop=1;jettySize=auto;html=1;exitX=0;exitY=0.5;exitDx=0;exitDy=0;" parent="1" source="8Ifmvfzh9Me1tGv9ybPd-36" edge="1">
          <mxGeometry relative="1" as="geometry">
            <mxPoint x="450" y="330" as="targetPoint" />
            <Array as="points">
              <mxPoint x="410" y="215" />
              <mxPoint x="410" y="300" />
              <mxPoint x="450" y="300" />
            </Array>
          </mxGeometry>
        </mxCell>
        <mxCell id="8Ifmvfzh9Me1tGv9ybPd-45" value="不满足" style="edgeLabel;html=1;align=center;verticalAlign=middle;resizable=0;points=[];" parent="8Ifmvfzh9Me1tGv9ybPd-43" vertex="1" connectable="0">
          <mxGeometry x="-0.5575" y="1" relative="1" as="geometry">
            <mxPoint x="-1" y="-8" as="offset" />
          </mxGeometry>
        </mxCell>
        <mxCell id="8Ifmvfzh9Me1tGv9ybPd-36" value="条件" style="rhombus;whiteSpace=wrap;html=1;fillColor=#fad9d5;strokeColor=#ae4132;" parent="1" vertex="1">
          <mxGeometry x="420" y="200" width="60" height="30" as="geometry" />
        </mxCell>
        <mxCell id="8Ifmvfzh9Me1tGv9ybPd-37" value="" style="endArrow=classic;html=1;rounded=0;entryX=0.5;entryY=0;entryDx=0;entryDy=0;" parent="1" edge="1">
          <mxGeometry width="50" height="50" relative="1" as="geometry">
            <mxPoint x="450" y="170" as="sourcePoint" />
            <mxPoint x="450" y="200" as="targetPoint" />
          </mxGeometry>
        </mxCell>
        <mxCell id="8Ifmvfzh9Me1tGv9ybPd-41" style="edgeStyle=orthogonalEdgeStyle;rounded=0;orthogonalLoop=1;jettySize=auto;html=1;exitX=0.5;exitY=1;exitDx=0;exitDy=0;" parent="1" source="8Ifmvfzh9Me1tGv9ybPd-38" edge="1">
          <mxGeometry relative="1" as="geometry">
            <mxPoint x="450" y="180" as="targetPoint" />
            <Array as="points">
              <mxPoint x="450" y="290" />
              <mxPoint x="490" y="290" />
              <mxPoint x="490" y="180" />
            </Array>
          </mxGeometry>
        </mxCell>
        <mxCell id="8Ifmvfzh9Me1tGv9ybPd-38" value="操作" style="rounded=0;whiteSpace=wrap;html=1;fillColor=#fad9d5;strokeColor=#ae4132;" parent="1" vertex="1">
          <mxGeometry x="420" y="260" width="60" height="20" as="geometry" />
        </mxCell>
        <mxCell id="8Ifmvfzh9Me1tGv9ybPd-51" style="edgeStyle=orthogonalEdgeStyle;rounded=0;orthogonalLoop=1;jettySize=auto;html=1;" parent="1" source="8Ifmvfzh9Me1tGv9ybPd-21" edge="1">
          <mxGeometry relative="1" as="geometry">
            <mxPoint x="320" y="330" as="targetPoint" />
            <Array as="points">
              <mxPoint x="360" y="300" />
              <mxPoint x="320" y="300" />
            </Array>
          </mxGeometry>
        </mxCell>
      </root>
    </mxGraphModel>
  </diagram>
</mxfile>
